<?xml version="1.0" encoding="UTF-8"?>
<svg xmlns="http://www.w3.org/2000/svg" xmlns:xlink="http://www.w3.org/1999/xlink" width="375pt" height="374.999991pt" viewBox="0 0 375 374.999991" version="1.2">
<defs>
<clipPath id="clip1">
  <path d="M 19.097656 19.097656 L 355.847656 19.097656 L 355.847656 355.847656 L 19.097656 355.847656 Z M 19.097656 19.097656 "/>
</clipPath>
<clipPath id="clip2">
  <path d="M 92 141 L 355.847656 141 L 355.847656 352 L 92 352 Z M 92 141 "/>
</clipPath>
</defs>
<g id="surface1">
<g clip-path="url(#clip1)" clip-rule="nonzero">
<path style=" stroke:none;fill-rule:nonzero;fill:rgb(99.21875%,78.819275%,23.139954%);fill-opacity:1;" d="M 355.941406 187.539062 C 355.941406 261.597656 308.15625 324.480469 241.726562 347.019531 C 236.191406 348.914062 230.507812 350.511719 224.734375 351.820312 C 222.746094 352.273438 220.746094 352.6875 218.734375 353.058594 C 218.558594 353.085938 218.386719 353.125 218.214844 353.152344 C 208.265625 354.992188 198.007812 355.941406 187.539062 355.941406 C 180.964844 355.941406 174.46875 355.566406 168.09375 354.832031 C 84.246094 345.191406 19.136719 273.972656 19.136719 187.539062 C 19.136719 94.527344 94.527344 19.136719 187.539062 19.136719 C 256.757812 19.136719 316.210938 60.882812 342.097656 120.574219 C 342.457031 121.414062 342.816406 122.242188 343.164062 123.082031 C 346.578125 131.339844 349.378906 139.941406 351.460938 148.808594 C 352.472656 153.089844 353.3125 157.425781 353.980469 161.824219 C 354.21875 163.414062 354.445312 165.011719 354.648438 166.628906 C 355.5 173.46875 355.941406 180.457031 355.941406 187.539062 Z M 355.941406 187.539062 "/>
</g>
<g clip-path="url(#clip2)" clip-rule="nonzero">
<path style=" stroke:none;fill-rule:nonzero;fill:rgb(96.859741%,65.489197%,22.349548%);fill-opacity:1;" d="M 355.941406 187.539062 C 355.941406 261.597656 308.15625 324.480469 241.726562 347.019531 C 236.191406 348.914062 230.507812 350.511719 224.734375 351.820312 L 92.101562 259.171875 L 314.210938 141.167969 L 354.648438 166.628906 C 355.5 173.46875 355.941406 180.457031 355.941406 187.539062 Z M 355.941406 187.539062 "/>
</g>
<path style=" stroke:none;fill-rule:nonzero;fill:rgb(23.529053%,24.708557%,49.409485%);fill-opacity:1;" d="M 92.101562 143.753906 L 92.101562 259.171875 C 92.101562 264.277344 133.273438 268.414062 184.042969 268.414062 C 234.816406 268.414062 275.988281 264.277344 275.988281 259.171875 L 275.988281 143.753906 Z M 92.101562 143.753906 "/>
<path style=" stroke:none;fill-rule:nonzero;fill:rgb(33.329773%,37.649536%,66.268921%);fill-opacity:1;" d="M 314.703125 153.355469 L 186.191406 198.96875 C 184.804688 199.460938 183.296875 199.460938 181.925781 198.96875 L 53.414062 153.355469 C 47.503906 151.261719 47.835938 142.78125 53.90625 141.167969 L 182.417969 106.878906 C 183.496094 106.585938 184.632812 106.585938 185.710938 106.878906 L 314.222656 141.167969 C 320.265625 142.78125 320.613281 151.25 314.703125 153.355469 Z M 314.703125 153.355469 "/>
<path style=" stroke:none;fill-rule:nonzero;fill:rgb(100%,8.628845%,8.628845%);fill-opacity:1;" d="M 276.519531 145.6875 C 286.351562 144.195312 296.644531 147.410156 303.019531 155.289062 C 310.15625 164.105469 306.914062 176.175781 304.953125 186.324219 C 301.113281 206.261719 301.671875 225.414062 309.410156 244.40625 C 310.371094 246.753906 314.238281 245.726562 313.261719 243.339844 C 308.167969 230.816406 305.660156 217.53125 306.421875 203.996094 C 307.15625 190.875 312.703125 177.617188 311.167969 164.386719 C 309.234375 147.636719 290.378906 139.566406 275.441406 141.835938 C 272.921875 142.207031 274 146.0625 276.519531 145.6875 Z M 276.519531 145.6875 "/>
<path style=" stroke:none;fill-rule:nonzero;fill:rgb(100%,8.628845%,8.628845%);fill-opacity:1;" d="M 304.542969 262.4375 C 304.886719 261.757812 305.515625 259.625 306.089844 259.117188 C 306.410156 259.785156 306.476562 261.996094 306.621094 262.730469 C 307.570312 262.824219 311.15625 262.878906 311.996094 262.863281 C 311.984375 262.128906 311.890625 260.128906 311.875 259.398438 C 312.53125 260.101562 313.261719 262.089844 313.917969 262.796875 C 316.023438 262.625 318.144531 262.277344 320.226562 261.796875 C 320.199219 261.609375 319.453125 257.851562 319.425781 257.824219 C 319.652344 257.941406 321.09375 260.730469 321.398438 261.503906 C 322.933594 261.105469 324.453125 260.609375 325.933594 260.050781 C 324.050781 255.714844 322.320312 251.316406 319.972656 247.179688 C 318.609375 244.792969 317.183594 242.40625 315.382812 240.324219 C 313.824219 238.523438 311.449219 236.136719 308.847656 236.335938 C 307.183594 236.457031 305.847656 237.75 304.929688 239.164062 C 304.902344 239.21875 304.859375 239.273438 304.835938 239.3125 C 302.820312 242.511719 302.21875 246.367188 301.394531 249.980469 C 301.207031 250.792969 299.941406 258.007812 299.460938 261.15625 C 301.074219 261.71875 302.78125 262.144531 304.542969 262.4375 Z M 304.542969 262.4375 "/>
</g>
</svg>
